# Blender 5.0.0
# www.blender.org
mtllib mug_5.mtl
o hilliard_marygrace_mug_0029833223
v 0.064470 0.004362 0.084713
v 0.064579 0.003384 0.081691
v 0.064471 -0.004362 0.084713
v 0.064579 -0.003384 0.081691
v 0.064584 -0.000000 0.080829
v 0.064351 0.003209 0.086959
v 0.064351 -0.003209 0.086959
v 0.064289 -0.000000 0.087820
v 0.074429 0.004296 0.085948
v 0.083257 0.004324 0.085572
v 0.091914 0.004350 0.083250
v 0.098744 0.004371 0.078140
v 0.101686 0.004384 0.069292
v 0.100098 0.004386 0.057228
v 0.098333 0.004386 0.047202
v 0.095663 0.004386 0.039908
v 0.091637 0.004386 0.035060
v 0.086502 0.004386 0.032407
v 0.080860 0.004499 0.031592
v 0.074950 0.004552 0.032242
v 0.066638 0.004557 0.034830
v 0.074032 0.003321 0.082873
v 0.082496 0.003347 0.082492
v 0.090662 0.003372 0.080248
v 0.096675 0.003391 0.075545
v 0.098472 0.003400 0.068679
v 0.097019 0.003401 0.057359
v 0.095277 0.003401 0.047946
v 0.092825 0.003401 0.041338
v 0.089274 0.003401 0.037285
v 0.084870 0.003401 0.035237
v 0.080144 0.003531 0.034727
v 0.074693 0.003551 0.035418
v 0.066835 0.003533 0.037927
v 0.074451 -0.004428 0.085944
v 0.083279 -0.004400 0.085568
v 0.091936 -0.004374 0.083246
v 0.098764 -0.004353 0.078136
v 0.101705 -0.004340 0.069284
v 0.100118 -0.004338 0.057226
v 0.098352 -0.004338 0.047198
v 0.095681 -0.004338 0.039898
v 0.091650 -0.004338 0.035046
v 0.086509 -0.004338 0.032389
v 0.080865 -0.004451 0.031572
v 0.074951 -0.004504 0.032221
v 0.066632 -0.004509 0.034810
v 0.074049 -0.003448 0.082869
v 0.082513 -0.003421 0.082489
v 0.090678 -0.003397 0.080245
v 0.096691 -0.003378 0.075542
v 0.098486 -0.003368 0.068674
v 0.097034 -0.003367 0.057358
v 0.095292 -0.003367 0.047942
v 0.092838 -0.003367 0.041331
v 0.089284 -0.003367 0.037274
v 0.084876 -0.003367 0.035223
v 0.080146 -0.003498 0.034711
v 0.074691 -0.003518 0.035402
v 0.066834 -0.003500 0.037912
v 0.073896 -0.000063 0.081995
v 0.082260 -0.000037 0.081612
v 0.090288 -0.000013 0.079391
v 0.096071 0.000006 0.074805
v 0.097566 0.000014 0.068502
v 0.096148 0.000015 0.057396
v 0.094408 0.000015 0.048156
v 0.091989 0.000015 0.041743
v 0.088575 0.000015 0.037915
v 0.084384 0.000015 0.036037
v 0.079914 0.000014 0.035627
v 0.074591 0.000014 0.036323
v 0.066861 0.000014 0.038802
v 0.074691 0.003142 0.088233
v 0.083809 0.003170 0.087862
v 0.092840 0.003197 0.085481
v 0.100300 0.003220 0.080069
v 0.104088 0.003235 0.069743
v 0.102390 0.003238 0.057130
v 0.100618 0.003238 0.046649
v 0.097822 0.003238 0.038842
v 0.093422 0.003238 0.033402
v 0.087705 0.003238 0.030300
v 0.081383 0.003296 0.029300
v 0.075104 0.003345 0.029902
v 0.066451 0.003364 0.032523
v 0.074707 -0.003276 0.088230
v 0.083825 -0.003249 0.087859
v 0.092856 -0.003221 0.085478
v 0.100315 -0.003198 0.080067
v 0.104102 -0.003183 0.069738
v 0.102404 -0.003180 0.057128
v 0.100632 -0.003180 0.046645
v 0.097835 -0.003180 0.038835
v 0.093432 -0.003180 0.033392
v 0.087710 -0.003180 0.030287
v 0.081386 -0.003237 0.029285
v 0.075102 -0.003287 0.029887
v 0.066447 -0.003306 0.032508
v 0.074779 -0.000068 0.089109
v 0.084009 -0.000040 0.088738
v 0.093184 -0.000012 0.086335
v 0.100915 0.000012 0.080809
v 0.105018 0.000028 0.069914
v 0.103275 0.000031 0.057091
v 0.101524 0.000031 0.046435
v 0.098673 0.000031 0.038429
v 0.094087 0.000031 0.032762
v 0.088152 0.000031 0.029486
v 0.081569 0.000031 0.028422
v 0.075141 0.000031 0.029004
v 0.066359 0.000031 0.031632
v -0.033417 0.033417 0.104074
v 0.000000 -0.000000 0.003043
v -0.030530 0.030530 0.012945
v -0.042626 0.006740 0.012945
v -0.023804 0.003764 0.003043
v -0.038426 0.019586 0.012945
v -0.021459 0.010938 0.003043
v -0.017049 0.017049 0.003043
v -0.057446 0.009084 0.068492
v -0.046658 0.007378 0.104074
v -0.051035 0.008070 0.098996
v -0.041144 0.041144 0.068492
v -0.051786 0.026396 0.068492
v -0.042060 0.021439 0.104074
v -0.046006 0.023450 0.098996
v -0.036552 0.036552 0.098996
v -0.019586 0.038426 0.012945
v -0.010938 0.021459 0.003043
v -0.006740 0.042626 0.012945
v -0.003764 0.023804 0.003043
v -0.021439 0.042060 0.104074
v -0.026396 0.051786 0.068492
v -0.023450 0.046006 0.098996
v -0.009084 0.057446 0.068492
v -0.007378 0.046658 0.104074
v -0.008070 0.051035 0.098996
v -0.033413 0.033413 0.072284
v -0.046652 0.007377 0.072284
v -0.042055 0.021436 0.072284
v -0.043918 0.006945 0.029466
v -0.048362 0.007647 0.050390
v -0.029168 0.004612 0.013857
v -0.031455 0.031455 0.029466
v -0.039591 0.020180 0.029466
v -0.043597 0.022222 0.050390
v -0.034638 0.034638 0.050390
v -0.026294 0.013402 0.013857
v -0.020891 0.020891 0.013857
v -0.021436 0.042055 0.072284
v -0.007377 0.046652 0.072284
v -0.020180 0.039591 0.029466
v -0.022222 0.043597 0.050390
v -0.013402 0.026294 0.013857
v -0.006945 0.043918 0.029466
v -0.007647 0.048362 0.050390
v -0.004612 0.029168 0.013857
v 0.033417 0.033417 0.104074
v 0.030530 0.030530 0.012945
v 0.006740 0.042626 0.012945
v 0.003764 0.023804 0.003043
v 0.019586 0.038426 0.012945
v 0.010938 0.021459 0.003043
v 0.017049 0.017049 0.003043
v 0.009084 0.057446 0.068492
v 0.007378 0.046658 0.104074
v 0.008070 0.051035 0.098996
v 0.041144 0.041144 0.068492
v 0.026396 0.051786 0.068492
v 0.021439 0.042060 0.104074
v 0.023450 0.046006 0.098996
v 0.036552 0.036552 0.098996
v 0.038426 0.019586 0.012945
v 0.021459 0.010938 0.003043
v 0.042626 0.006740 0.012945
v 0.023804 0.003764 0.003043
v 0.042060 0.021439 0.104074
v 0.051319 0.026396 0.068487
v 0.046006 0.023450 0.098996
v 0.055412 0.009084 0.068472
v 0.055665 0.006772 0.029486
v 0.046658 0.007378 0.104074
v 0.051035 0.008070 0.098996
v 0.033413 0.033413 0.072284
v 0.007377 0.046652 0.072284
v 0.021436 0.042055 0.072284
v 0.006945 0.043918 0.029466
v 0.007647 0.048362 0.050390
v 0.004612 0.029168 0.013857
v 0.031455 0.031455 0.029466
v 0.020180 0.039591 0.029466
v 0.022222 0.043597 0.050390
v 0.034638 0.034638 0.050390
v 0.013402 0.026294 0.013857
v 0.020891 0.020891 0.013857
v 0.042055 0.021436 0.072284
v 0.046291 0.007377 0.072280
v 0.039591 0.020180 0.029466
v 0.043542 0.022222 0.050391
v 0.026294 0.013402 0.013857
v 0.043918 0.006945 0.029466
v 0.047671 0.007647 0.050394
v 0.029168 0.004612 0.013857
v 0.033417 -0.033417 0.104074
v 0.030530 -0.030530 0.012945
v 0.042626 -0.006740 0.012945
v 0.023804 -0.003764 0.003043
v 0.038426 -0.019586 0.012945
v 0.021459 -0.010938 0.003043
v 0.017049 -0.017049 0.003043
v 0.055412 -0.009084 0.068472
v 0.055665 -0.006772 0.029486
v 0.046658 -0.007378 0.104074
v 0.051035 -0.008070 0.098996
v 0.041144 -0.041144 0.068492
v 0.051319 -0.026396 0.068487
v 0.042060 -0.021439 0.104074
v 0.046006 -0.023450 0.098996
v 0.036552 -0.036552 0.098996
v 0.019586 -0.038426 0.012945
v 0.010938 -0.021459 0.003043
v 0.006740 -0.042626 0.012945
v 0.003764 -0.023804 0.003043
v 0.021439 -0.042060 0.104074
v 0.026396 -0.051786 0.068492
v 0.023450 -0.046006 0.098996
v 0.009084 -0.057446 0.068492
v 0.007378 -0.046658 0.104074
v 0.008070 -0.051035 0.098996
v 0.033413 -0.033413 0.072284
v 0.046291 -0.007377 0.072280
v 0.042055 -0.021436 0.072284
v 0.043918 -0.006945 0.029466
v 0.047671 -0.007647 0.050394
v 0.029168 -0.004612 0.013857
v 0.031455 -0.031455 0.029466
v 0.039591 -0.020180 0.029466
v 0.043542 -0.022222 0.050391
v 0.034638 -0.034638 0.050390
v 0.026294 -0.013402 0.013857
v 0.020891 -0.020891 0.013857
v 0.021436 -0.042055 0.072284
v 0.007377 -0.046652 0.072284
v 0.020180 -0.039591 0.029466
v 0.022222 -0.043597 0.050390
v 0.013402 -0.026294 0.013857
v 0.006945 -0.043918 0.029466
v 0.007647 -0.048362 0.050390
v 0.004612 -0.029168 0.013857
v -0.033417 -0.033417 0.104074
v -0.030530 -0.030530 0.012945
v -0.006740 -0.042626 0.012945
v -0.003764 -0.023804 0.003043
v -0.019586 -0.038426 0.012945
v -0.010938 -0.021459 0.003043
v -0.017049 -0.017049 0.003043
v -0.009084 -0.057446 0.068492
v -0.007378 -0.046658 0.104074
v -0.008070 -0.051035 0.098996
v -0.041144 -0.041144 0.068492
v -0.026396 -0.051786 0.068492
v -0.021439 -0.042060 0.104074
v -0.023450 -0.046006 0.098996
v -0.036552 -0.036552 0.098996
v -0.038426 -0.019586 0.012945
v -0.021459 -0.010938 0.003043
v -0.042626 -0.006740 0.012945
v -0.023804 -0.003764 0.003043
v -0.042060 -0.021439 0.104074
v -0.051786 -0.026396 0.068492
v -0.046006 -0.023450 0.098996
v -0.057446 -0.009084 0.068492
v -0.046658 -0.007378 0.104074
v -0.051035 -0.008070 0.098996
v -0.033413 -0.033413 0.072284
v -0.007377 -0.046652 0.072284
v -0.021436 -0.042055 0.072284
v -0.006945 -0.043918 0.029466
v -0.007647 -0.048362 0.050390
v -0.004612 -0.029168 0.013857
v -0.031455 -0.031455 0.029466
v -0.020180 -0.039591 0.029466
v -0.022222 -0.043597 0.050390
v -0.034638 -0.034638 0.050390
v -0.013402 -0.026294 0.013857
v -0.020891 -0.020891 0.013857
v -0.042055 -0.021436 0.072284
v -0.046652 -0.007377 0.072284
v -0.039591 -0.020180 0.029466
v -0.043597 -0.022222 0.050390
v -0.026294 -0.013402 0.013857
v -0.043918 -0.006945 0.029466
v -0.048362 -0.007647 0.050390
v -0.029168 -0.004612 0.013857
v -0.060048 0.009495 0.049251
v -0.060048 -0.009495 0.049251
v -0.054132 -0.027592 0.049251
v -0.043008 -0.043008 0.049251
v -0.027592 -0.054132 0.049251
v -0.009495 -0.060048 0.049251
v 0.009495 -0.060048 0.049251
v 0.027592 -0.054132 0.049251
v 0.043008 -0.043008 0.049251
v 0.053415 -0.027592 0.049256
v 0.057368 -0.009495 0.049269
v 0.057368 0.009495 0.049269
v 0.053415 0.027592 0.049256
v 0.043008 0.043008 0.049251
v 0.027592 0.054132 0.049251
v 0.009495 0.060048 0.049251
v -0.009495 0.060048 0.049251
v -0.027592 0.054132 0.049251
v -0.043008 0.043008 0.049251
v -0.054132 0.027592 0.049251
v -0.054240 0.008577 0.083744
v -0.048896 0.024923 0.083744
v -0.038848 0.038848 0.083744
v -0.024923 0.048896 0.083744
v -0.008577 0.054240 0.083744
v 0.008577 0.054240 0.083744
v 0.024923 0.048896 0.083744
v 0.038848 0.038848 0.083744
v 0.048861 0.024923 0.083743
v 0.053524 0.008577 0.083727
v 0.053524 -0.008577 0.083727
v 0.048861 -0.024923 0.083743
v 0.038848 -0.038848 0.083744
v 0.024923 -0.048896 0.083744
v 0.008577 -0.054240 0.083744
v -0.008577 -0.054240 0.083744
v -0.024923 -0.048896 0.083744
v -0.038848 -0.038848 0.083744
v -0.048896 -0.024923 0.083744
v -0.054240 -0.008577 0.083744
v -0.039522 0.020145 0.103168
v -0.040441 0.020613 0.104277
v -0.032130 0.032130 0.104277
v -0.031400 0.031400 0.103168
v -0.043842 0.006932 0.103168
v -0.044861 0.007094 0.104277
v -0.020613 0.040441 0.104277
v -0.020145 0.039522 0.103168
v -0.007094 0.044861 0.104277
v -0.006932 0.043842 0.103168
v 0.007094 0.044861 0.104277
v 0.006932 0.043842 0.103168
v 0.020145 0.039522 0.103168
v 0.020613 0.040441 0.104277
v 0.032130 0.032130 0.104277
v 0.031400 0.031400 0.103168
v 0.040441 0.020613 0.104277
v 0.039522 0.020145 0.103168
v 0.044861 0.007094 0.104277
v 0.043842 0.006932 0.103168
v 0.044861 -0.007094 0.104277
v 0.043842 -0.006932 0.103168
v 0.039522 -0.020145 0.103168
v 0.040441 -0.020613 0.104277
v 0.032130 -0.032130 0.104277
v 0.031400 -0.031400 0.103168
v 0.020613 -0.040441 0.104277
v 0.020145 -0.039522 0.103168
v 0.007094 -0.044861 0.104277
v 0.006932 -0.043842 0.103168
v -0.007094 -0.044861 0.104277
v -0.006932 -0.043842 0.103168
v -0.020145 -0.039522 0.103168
v -0.020613 -0.040441 0.104277
v -0.032130 -0.032130 0.104277
v -0.031400 -0.031400 0.103168
v -0.040441 -0.020613 0.104277
v -0.039522 -0.020145 0.103168
v -0.043842 -0.006932 0.103168
v -0.044861 -0.007094 0.104277
v -0.012444 0.012444 0.007393
v -0.015663 0.007984 0.007393
v 0.000000 -0.000000 0.007393
v -0.017375 0.002747 0.007393
v -0.017375 -0.002747 0.007393
v -0.007984 0.015663 0.007393
v -0.002747 0.017375 0.007393
v 0.012444 0.012444 0.007393
v 0.007984 0.015663 0.007393
v 0.002747 0.017375 0.007393
v 0.015663 0.007984 0.007393
v 0.017375 0.002747 0.007393
v 0.012444 -0.012444 0.007393
v 0.015663 -0.007984 0.007393
v 0.017375 -0.002747 0.007393
v 0.007984 -0.015663 0.007393
v 0.002747 -0.017375 0.007393
v -0.012444 -0.012444 0.007393
v -0.007984 -0.015663 0.007393
v -0.002747 -0.017375 0.007393
v -0.015663 -0.007984 0.007393
v -0.045013 0.007118 0.090292
v -0.040578 0.020683 0.090292
v -0.032240 0.032240 0.090292
v -0.020683 0.040578 0.090292
v -0.007118 0.045013 0.090292
v 0.007118 0.045013 0.090292
v 0.020683 0.040578 0.090292
v 0.032240 0.032240 0.090292
v 0.040578 0.020683 0.090292
v 0.045013 0.007118 0.090292
v 0.045013 -0.007118 0.090292
v 0.040578 -0.020683 0.090292
v 0.032240 -0.032240 0.090292
v 0.020683 -0.040578 0.090292
v 0.007118 -0.045013 0.090292
v -0.007118 -0.045013 0.090292
v -0.020683 -0.040578 0.090292
v -0.032240 -0.032240 0.090292
v -0.040578 -0.020683 0.090292
v -0.045013 -0.007118 0.090292
v 0.054228 -0.006654 0.077787
v 0.054228 0.006654 0.077787
v 0.052894 0.006310 0.088142
v 0.052894 -0.006310 0.088142
v 0.023804 -0.000000 0.003043
v 0.042626 -0.000000 0.012945
v 0.055457 -0.000000 0.027678
v 0.057159 -0.000000 0.049271
v 0.055252 -0.000000 0.068471
v 0.054358 -0.000000 0.076094
v 0.052617 -0.000000 0.089835
v 0.051035 -0.000000 0.098996
v 0.046658 -0.000000 0.104074
v 0.044861 -0.000000 0.104277
v 0.043842 -0.000000 0.103168
v 0.045013 -0.000000 0.090292
v 0.046251 -0.000000 0.072279
v 0.047610 -0.000000 0.050395
v 0.043918 -0.000000 0.029466
v 0.029168 -0.000000 0.013857
v 0.017375 -0.000000 0.007393
v 0.056563 -0.007089 0.040994
v 0.056603 -0.000000 0.042801
v 0.056563 0.007089 0.040994
v -0.057600 0.009108 0.035215
v -0.057600 -0.009108 0.035215
v -0.051924 -0.026467 0.035215
v -0.041254 -0.041254 0.035215
v -0.026467 -0.051924 0.035215
v -0.009108 -0.057600 0.035215
v 0.009108 -0.057600 0.035215
v 0.026467 -0.051924 0.035215
v 0.041254 -0.041254 0.035215
v 0.051702 -0.026467 0.035219
v 0.056178 -0.009108 0.035242
v 0.056178 0.009108 0.035242
v 0.051702 0.026467 0.035219
v 0.041254 0.041254 0.035215
v 0.026467 0.051924 0.035215
v 0.009108 0.057600 0.035215
v -0.009108 0.057600 0.035215
v -0.026467 0.051924 0.035215
v -0.041254 0.041254 0.035215
v -0.051924 0.026467 0.035215
v 0.060161 0.005080 0.039299
v 0.060186 0.000005 0.040585
v 0.060159 -0.005068 0.039293
v 0.059914 -0.006516 0.035089
v 0.059626 -0.004828 0.031163
v 0.059498 0.000011 0.029876
v 0.059627 0.004849 0.031168
v 0.059903 0.006533 0.035096
v 0.063156 0.003987 0.038367
v 0.062968 0.005132 0.034998
v 0.062769 0.003802 0.032091
v 0.062673 0.000020 0.031080
v 0.062767 -0.003765 0.032082
v 0.062965 -0.005101 0.034987
v 0.063154 -0.003965 0.038358
v 0.063178 0.000010 0.039368
v 0.060072 0.003979 0.080640
v 0.059824 0.005129 0.084193
v 0.059585 0.003774 0.086834
v 0.059480 -0.000000 0.087847
v 0.059585 -0.003774 0.086834
v 0.059824 -0.005129 0.084193
v 0.060072 -0.003979 0.080640
v 0.060115 -0.000000 0.079627
v 0.056252 0.005033 0.079323
v 0.055798 0.006487 0.083816
v 0.055390 0.004773 0.087155
v 0.055214 -0.000000 0.088436
v 0.055390 -0.004773 0.087155
v 0.055798 -0.006487 0.083816
v 0.056252 -0.005033 0.079323
v 0.056339 -0.000000 0.078042
vn 0.1545 0.6596 -0.7355
vn 0.0566 0.9977 0.0379
vn -0.0043 0.9980 0.0638
vn 0.0340 0.6894 -0.7236
vn 0.0044 0.9978 0.0663
vn -0.1127 0.7060 -0.6992
vn 0.0362 0.9962 0.0790
vn -0.3010 0.7339 -0.6089
vn 0.1155 0.9913 0.0630
vn -0.5390 0.7612 -0.3607
vn 0.1098 0.9939 0.0096
vn -0.6886 0.7251 -0.0130
vn 0.0432 0.9990 -0.0067
vn -0.7215 0.6834 0.1113
vn 0.0606 0.9981 -0.0149
vn -0.6913 0.6994 0.1815
vn 0.0757 0.9962 -0.0428
vn -0.5976 0.7277 0.3368
vn 0.0612 0.9950 -0.0787
vn -0.4107 0.7387 0.5345
vn 0.0351 0.9950 -0.0933
vn -0.1761 0.7240 0.6669
vn 0.0124 0.9960 -0.0886
vn 0.0226 0.7032 0.7107
vn -0.0196 0.9963 -0.0838
vn 0.1717 0.6824 0.7105
vn 0.0557 0.9984 -0.0052
vn 0.2171 0.6184 0.7553
vn 0.0303 -0.6906 -0.7226
vn -0.0081 -0.9980 0.0624
vn 0.0478 -0.9981 0.0381
vn 0.1490 -0.6588 -0.7374
vn -0.1085 -0.7054 -0.7004
vn 0.0101 -0.9979 0.0641
vn -0.2971 -0.7344 -0.6102
vn 0.0413 -0.9962 0.0770
vn -0.5355 -0.7631 -0.3619
vn 0.1200 -0.9909 0.0613
vn -0.6856 -0.7278 -0.0137
vn 0.1139 -0.9935 0.0085
vn -0.7186 -0.6866 0.1108
vn 0.0474 -0.9988 -0.0075
vn -0.6882 -0.7027 0.1807
vn 0.0649 -0.9978 -0.0160
vn -0.5946 -0.7309 0.3351
vn 0.0794 -0.9958 -0.0449
vn -0.4086 -0.7419 0.5317
vn 0.0639 -0.9946 -0.0820
vn -0.1752 -0.7273 0.6636
vn 0.0365 -0.9946 -0.0974
vn 0.0225 -0.7065 0.7073
vn 0.0124 -0.9956 -0.0931
vn 0.1709 -0.6859 0.7073
vn -0.0206 -0.9959 -0.0884
vn 0.2176 -0.6215 0.7526
vn 0.0561 -0.9984 -0.0098
vn 0.0471 -0.0005 -0.9989
vn 0.1732 0.0009 -0.9849
vn -0.1544 0.0001 -0.9880
vn -0.4425 -0.0006 -0.8968
vn -0.8392 -0.0017 -0.5439
vn -1.0000 -0.0021 -0.0080
vn -0.9882 -0.0022 0.1534
vn -0.9668 -0.0023 0.2555
vn -0.8688 -0.0024 0.4951
vn -0.5989 -0.0024 0.8008
vn -0.2519 -0.0023 0.9678
vn 0.0312 -0.0023 0.9995
vn 0.2394 -0.0023 0.9709
vn 0.2531 -0.0019 0.9674
vn -0.0479 0.5779 0.8147
vn -0.0368 0.5685 0.8219
vn 0.1209 0.5789 0.8064
vn 0.3469 0.5786 0.7382
vn 0.6746 0.5560 0.4856
vn 0.8291 0.5538 0.0767
vn 0.8011 0.5864 -0.1199
vn 0.7890 0.5820 -0.1968
vn 0.7169 0.5776 -0.3904
vn 0.5301 0.5708 -0.6271
vn 0.2691 0.5621 -0.7821
vn 0.0308 0.5568 -0.8301
vn -0.1740 0.5461 -0.8195
vn -0.1131 0.5964 -0.7947
vn -0.0384 -0.5709 0.8201
vn -0.0530 -0.5768 0.8151
vn 0.1243 -0.5792 0.8056
vn 0.3500 -0.5778 0.7373
vn 0.6773 -0.5534 0.4847
vn 0.8315 -0.5503 0.0760
vn 0.8037 -0.5828 -0.1205
vn 0.7915 -0.5785 -0.1974
vn 0.7191 -0.5741 -0.3915
vn 0.5316 -0.5674 -0.6289
vn 0.2700 -0.5586 -0.7843
vn 0.0309 -0.5531 -0.8325
vn -0.1745 -0.5425 -0.8217
vn -0.1129 -0.5927 -0.7975
vn -0.0446 -0.0013 0.9990
vn -0.0796 0.0004 0.9968
vn 0.1507 -0.0001 0.9886
vn 0.4239 0.0006 0.9057
vn 0.8050 0.0016 0.5933
vn 0.9952 0.0021 0.0982
vn 0.9890 0.0023 -0.1476
vn 0.9706 0.0022 -0.2406
vn 0.8795 0.0022 -0.4760
vn 0.6493 0.0021 -0.7606
vn 0.3298 0.0021 -0.9440
vn 0.0381 0.0022 -0.9993
vn -0.2049 0.0022 -0.9788
vn -0.1576 0.0023 -0.9875
vn -0.1483 0.9296 0.3373
vn -0.1049 0.6575 0.7461
vn 0.1046 0.6576 0.7461
vn 0.1483 0.9297 0.3373
vn -0.4708 0.4708 0.7461
vn -0.6657 0.6657 0.3373
vn -0.8392 0.4267 0.3373
vn -0.5934 0.3017 0.7462
vn -0.5171 0.5171 -0.6821
vn -0.2501 0.2501 -0.9353
vn -0.3151 0.1603 -0.9354
vn -0.6518 0.3314 -0.6821
vn -0.3493 0.0556 -0.9354
vn -0.7221 0.1152 -0.6821
vn -0.0000 -0.0000 -1.0000
vn -0.3492 -0.0558 -0.9354
vn -0.7221 -0.1152 -0.6821
vn -0.9297 0.1483 0.3373
vn -0.6575 0.1049 0.7461
vn -0.8914 0.4532 0.0048
vn -0.9875 0.1573 0.0049
vn -0.9737 0.1553 0.1665
vn -0.8790 0.4469 0.1664
vn -0.9875 -0.1573 0.0049
vn -0.9737 -0.1553 0.1665
vn -0.9296 -0.1483 0.3373
vn -0.6575 -0.1049 0.7461
vn -0.9659 -0.1539 0.2081
vn -0.9659 0.1542 0.2081
vn -0.8718 0.4434 0.2080
vn -0.6972 0.6972 0.1666
vn -0.7071 0.7071 0.0049
vn -0.6916 0.6916 0.2082
vn -0.0556 0.3493 -0.9354
vn -0.1152 0.7221 -0.6821
vn 0.1152 0.7221 -0.6821
vn 0.0558 0.3492 -0.9354
vn -0.3314 0.6518 -0.6821
vn -0.1602 0.3151 -0.9354
vn -0.3019 0.5933 0.7462
vn -0.4267 0.8391 0.3373
vn -0.4469 0.8790 0.1664
vn -0.4532 0.8914 0.0048
vn -0.4434 0.8718 0.2080
vn 0.1575 0.9875 0.0049
vn -0.1573 0.9875 0.0049
vn -0.1553 0.9737 0.1665
vn 0.1553 0.9737 0.1665
vn -0.1539 0.9659 0.2081
vn 0.1539 0.9659 0.2081
vn 0.8877 -0.4511 -0.0917
vn 0.7041 -0.7041 -0.0918
vn 0.7071 -0.7071 -0.0067
vn 0.8913 -0.4533 -0.0068
vn 0.9834 -0.1567 -0.0917
vn 0.9875 -0.1574 -0.0067
vn 0.9834 0.1567 -0.0917
vn 0.9875 0.1574 -0.0068
vn 0.9857 -0.1572 0.0614
vn 0.8921 -0.1423 0.4288
vn 0.8052 -0.4095 0.4289
vn 0.8897 -0.4524 0.0614
vn 0.9857 0.1572 0.0614
vn 0.8921 0.1423 0.4288
vn 0.9840 -0.1570 -0.0846
vn 0.9840 0.1570 -0.0845
vn 0.8882 -0.4516 -0.0845
vn 0.6576 0.1049 0.7460
vn 0.6576 -0.1049 0.7460
vn 0.5937 -0.3019 0.7459
vn 0.6388 -0.6388 0.4288
vn 0.7058 -0.7058 0.0614
vn 0.7046 -0.7046 -0.0845
vn 0.4709 -0.4708 0.7461
vn 0.1567 -0.9834 -0.0917
vn -0.1567 -0.9834 -0.0917
vn -0.1576 -0.9875 -0.0067
vn 0.1574 -0.9875 -0.0067
vn 0.4514 -0.8876 -0.0917
vn 0.4532 -0.8914 -0.0068
vn 0.4095 -0.8052 0.4289
vn 0.4524 -0.8897 0.0614
vn 0.4516 -0.8882 -0.0846
vn 0.3019 -0.5937 0.7459
vn 0.1572 -0.9857 0.0614
vn 0.1423 -0.8921 0.4288
vn -0.1423 -0.8921 0.4288
vn -0.1572 -0.9857 0.0614
vn 0.1570 -0.9840 -0.0846
vn -0.1570 -0.9840 -0.0845
vn 0.1049 -0.6576 0.7460
vn -0.1049 -0.6576 0.7460
vn 0.9240 -0.0000 0.3823
vn 0.6561 -0.0000 0.7547
vn 0.6516 -0.1398 0.7456
vn 0.8999 -0.1816 0.3965
vn 0.4708 0.4708 0.7461
vn 0.6659 0.6655 0.3370
vn 0.4267 0.8392 0.3373
vn 0.3017 0.5934 0.7462
vn 0.5184 0.5163 -0.6817
vn 0.2501 0.2501 -0.9353
vn 0.1603 0.3151 -0.9354
vn 0.3314 0.6518 -0.6821
vn 0.4532 0.8914 0.0048
vn 0.4469 0.8790 0.1664
vn 0.4434 0.8718 0.2080
vn 0.7038 0.6915 0.1630
vn 0.7143 0.6998 0.0063
vn 0.6940 0.6901 0.2052
vn 0.2660 -0.0000 -0.9640
vn 0.6460 -0.0000 -0.7633
vn 0.6201 -0.1343 -0.7730
vn 0.3207 -0.0688 -0.9447
vn 0.6235 0.3503 -0.6989
vn 0.3151 0.1602 -0.9354
vn 0.6201 0.1343 -0.7730
vn 0.3207 0.0688 -0.9447
vn 0.5933 0.3019 0.7462
vn 0.8247 0.4379 0.3580
vn 0.8978 0.4164 0.1437
vn 0.9087 0.4168 0.0242
vn 0.8776 0.4392 0.1921
vn 0.9886 -0.1388 0.0578
vn 0.9987 -0.0000 0.0513
vn 0.9944 -0.0000 0.1053
vn 0.9831 -0.1389 0.1195
vn 0.9886 0.1388 0.0578
vn 0.9831 0.1389 0.1195
vn 0.7880 0.2741 -0.5513
vn 0.7375 -0.0000 -0.6753
vn 0.7881 -0.2741 -0.5512
vn 0.6516 0.1398 0.7456
vn 0.8999 0.1816 0.3965
vn 0.9722 0.2100 0.1034
vn 0.9465 0.2714 0.1747
vn -0.4514 -0.8876 -0.0917
vn -0.7041 -0.7041 -0.0918
vn -0.7071 -0.7071 -0.0067
vn -0.4533 -0.8913 -0.0068
vn -0.4095 -0.8053 0.4288
vn -0.4524 -0.8897 0.0614
vn -0.4516 -0.8882 -0.0845
vn -0.3019 -0.5937 0.7459
vn -0.6391 -0.6386 0.4286
vn -0.7062 -0.7053 0.0614
vn -0.7048 -0.7043 -0.0843
vn -0.4708 -0.4709 0.7461
vn -0.9999 -0.0000 -0.0110
vn -0.9969 -0.0000 -0.0782
vn -0.9755 0.2035 -0.0836
vn -0.9777 0.2097 -0.0067
vn -0.8894 -0.4484 -0.0888
vn -0.8914 -0.4532 -0.0068
vn -0.9755 -0.2035 -0.0836
vn -0.9778 -0.2096 -0.0067
vn -0.8096 -0.4045 0.4253
vn -0.8956 -0.4409 0.0597
vn -0.8936 -0.4416 -0.0799
vn -0.5937 -0.3019 0.7459
vn -0.9986 -0.0000 0.0531
vn -0.9076 -0.0000 0.4199
vn -0.8903 0.1811 0.4178
vn -0.9801 0.1901 0.0563
vn -0.8903 -0.1811 0.4178
vn -0.9801 -0.1901 0.0563
vn -0.9787 -0.1920 -0.0723
vn -0.9978 -0.0000 -0.0657
vn -0.9787 0.1920 -0.0723
vn -0.6517 -0.1398 0.7455
vn -0.6632 -0.0000 0.7484
vn -0.6517 0.1398 0.7455
vn 0.1483 -0.9296 0.3373
vn 0.1049 -0.6575 0.7461
vn -0.1046 -0.6576 0.7461
vn -0.1483 -0.9297 0.3373
vn 0.4708 -0.4708 0.7461
vn 0.6660 -0.6655 0.3370
vn 0.8247 -0.4379 0.3580
vn 0.5934 -0.3017 0.7462
vn 0.5184 -0.5163 -0.6817
vn 0.2501 -0.2501 -0.9353
vn 0.3151 -0.1603 -0.9354
vn 0.6235 -0.3503 -0.6989
vn 0.9087 -0.4168 0.0242
vn 0.8978 -0.4164 0.1437
vn 0.9722 -0.2100 0.1034
vn 0.9465 -0.2714 0.1747
vn 0.8776 -0.4392 0.1921
vn 0.7038 -0.6915 0.1630
vn 0.7143 -0.6998 0.0063
vn 0.6940 -0.6901 0.2052
vn 0.0556 -0.3493 -0.9354
vn 0.1152 -0.7221 -0.6821
vn -0.1152 -0.7221 -0.6821
vn -0.0558 -0.3492 -0.9354
vn 0.3314 -0.6518 -0.6821
vn 0.1602 -0.3151 -0.9354
vn 0.3019 -0.5933 0.7462
vn 0.4267 -0.8391 0.3373
vn 0.4469 -0.8790 0.1664
vn 0.4532 -0.8914 0.0048
vn 0.4434 -0.8718 0.2080
vn -0.1575 -0.9875 0.0049
vn 0.1573 -0.9875 0.0049
vn 0.1553 -0.9737 0.1665
vn -0.1553 -0.9737 0.1665
vn 0.1539 -0.9659 0.2081
vn -0.1539 -0.9659 0.2081
vn -0.8893 0.4485 -0.0890
vn -0.7041 0.7041 -0.0918
vn -0.7071 0.7071 -0.0067
vn -0.8913 0.4533 -0.0068
vn -0.8096 0.4045 0.4253
vn -0.8956 0.4409 0.0596
vn -0.8936 0.4416 -0.0800
vn -0.5937 0.3019 0.7459
vn -0.6391 0.6386 0.4286
vn -0.7062 0.7053 0.0614
vn -0.7048 0.7043 -0.0843
vn -0.4709 0.4708 0.7461
vn -0.1567 0.9834 -0.0917
vn 0.1567 0.9834 -0.0917
vn 0.1576 0.9875 -0.0067
vn -0.1574 0.9875 -0.0067
vn -0.4514 0.8876 -0.0917
vn -0.4532 0.8914 -0.0068
vn -0.4095 0.8052 0.4289
vn -0.4524 0.8897 0.0614
vn -0.4516 0.8882 -0.0846
vn -0.3019 0.5937 0.7459
vn -0.1572 0.9857 0.0614
vn -0.1423 0.8921 0.4288
vn 0.1423 0.8921 0.4288
vn 0.1572 0.9857 0.0614
vn -0.1570 0.9840 -0.0846
vn 0.1570 0.9840 -0.0845
vn -0.1049 0.6576 0.7460
vn 0.1049 0.6576 0.7460
vn -0.4708 -0.4708 0.7461
vn -0.6657 -0.6657 0.3373
vn -0.4267 -0.8392 0.3373
vn -0.3017 -0.5934 0.7462
vn -0.5171 -0.5171 -0.6821
vn -0.2501 -0.2501 -0.9353
vn -0.1603 -0.3151 -0.9354
vn -0.3314 -0.6518 -0.6821
vn -0.4532 -0.8914 0.0048
vn -0.4469 -0.8790 0.1664
vn -0.4434 -0.8718 0.2080
vn -0.6972 -0.6972 0.1666
vn -0.7071 -0.7071 0.0049
vn -0.6916 -0.6916 0.2082
vn -0.6518 -0.3314 -0.6821
vn -0.3151 -0.1602 -0.9354
vn -0.5933 -0.3019 0.7462
vn -0.8391 -0.4267 0.3373
vn -0.8790 -0.4469 0.1664
vn -0.8914 -0.4532 0.0048
vn -0.8718 -0.4434 0.2080
vn 0.4514 0.8876 -0.0917
vn 0.7041 0.7041 -0.0918
vn 0.7071 0.7071 -0.0067
vn 0.4533 0.8913 -0.0068
vn 0.4095 0.8053 0.4288
vn 0.4524 0.8897 0.0614
vn 0.4516 0.8882 -0.0845
vn 0.3019 0.5937 0.7459
vn 0.6388 0.6388 0.4288
vn 0.7058 0.7058 0.0614
vn 0.7046 0.7046 -0.0846
vn 0.4708 0.4709 0.7461
vn 0.8877 0.4511 -0.0917
vn 0.8914 0.4532 -0.0068
vn 0.8053 0.4095 0.4288
vn 0.8897 0.4524 0.0614
vn 0.8882 0.4516 -0.0845
vn 0.5937 0.3019 0.7459
vn 0.9754 -0.2184 -0.0285
vn 0.9872 -0.0001 0.1594
vn 0.9754 0.2184 -0.0284
vn 0.9457 0.2304 0.2292
vn 0.9457 -0.2304 0.2292
vn 0.2295 -0.1167 0.9663
vn 0.2533 -0.0404 0.9666
vn 0.1809 -0.1809 0.9667
vn 0.1167 -0.2295 0.9663
vn 0.2533 0.0404 0.9665
vn 0.0404 -0.2533 0.9666
vn -0.0404 -0.2533 0.9665
vn -0.1167 -0.2295 0.9663
vn -0.1809 -0.1809 0.9667
vn -0.2295 -0.1167 0.9663
vn -0.2510 -0.0538 0.9665
vn -0.2988 -0.0000 0.9543
vn -0.2511 0.0538 0.9665
vn -0.2295 0.1167 0.9663
vn -0.1809 0.1809 0.9667
vn -0.1167 0.2295 0.9663
vn -0.0404 0.2533 0.9666
vn 0.0404 0.2533 0.9665
vn 0.1167 0.2295 0.9663
vn 0.1809 0.1809 0.9667
vn 0.2295 0.1167 0.9663
vn 0.2467 -0.2467 0.9371
vn 0.3107 -0.1581 0.9373
vn -0.0000 -0.0000 1.0000
vn 0.3445 -0.0550 0.9372
vn 0.3445 0.0548 0.9372
vn 0.1580 -0.3107 0.9373
vn 0.0550 -0.3445 0.9372
vn -0.2467 -0.2467 0.9371
vn -0.1581 -0.3107 0.9373
vn -0.0550 -0.3445 0.9372
vn -0.3108 -0.1580 0.9373
vn -0.3128 -0.0671 0.9474
vn -0.2467 0.2467 0.9371
vn -0.3107 0.1581 0.9373
vn -0.3128 0.0671 0.9474
vn -0.2525 -0.0000 0.9676
vn -0.1580 0.3107 0.9373
vn -0.0550 0.3445 0.9372
vn 0.2467 0.2467 0.9371
vn 0.1581 0.3107 0.9373
vn 0.0550 0.3445 0.9372
vn 0.3108 0.1580 0.9373
vn 0.9999 -0.0000 -0.0110
vn 0.9583 0.0001 0.2859
vn -0.8982 0.1433 -0.4157
vn -0.8982 -0.1433 -0.4157
vn -0.8107 -0.4123 -0.4156
vn -0.6431 -0.6431 -0.4157
vn -0.4123 -0.8107 -0.4156
vn -0.1433 -0.8982 -0.4157
vn 0.1433 -0.8982 -0.4157
vn 0.4123 -0.8107 -0.4156
vn 0.6474 -0.6405 -0.4130
vn 0.8198 -0.4253 -0.3835
vn 0.8859 -0.3172 -0.3384
vn 0.8859 0.3172 -0.3385
vn 0.8198 0.4253 -0.3835
vn 0.6474 0.6405 -0.4130
vn 0.4123 0.8107 -0.4156
vn 0.1433 0.8982 -0.4157
vn -0.1433 0.8982 -0.4157
vn -0.4123 0.8107 -0.4156
vn -0.6431 0.6431 -0.4157
vn -0.8107 0.4123 -0.4156
vn 0.3169 0.6195 0.7182
vn 0.3070 0.9505 -0.0478
vn 0.5235 0.8496 -0.0639
vn 0.5411 0.5488 0.6372
vn 0.2934 0.5649 -0.7712
vn 0.4928 0.5210 -0.6970
vn 0.2632 0.0011 -0.9647
vn 0.4402 0.0004 -0.8979
vn 0.2956 -0.5624 -0.7722
vn 0.4942 -0.5196 -0.6970
vn 0.3112 -0.9490 -0.0504
vn 0.5261 -0.8479 -0.0649
vn 0.3199 -0.6205 0.7160
vn 0.5431 -0.5485 0.6358
vn 0.2723 -0.0012 0.9622
vn 0.4773 -0.0004 0.8787
vn 0.3284 -0.0000 -0.9445
vn 0.3373 0.6382 -0.6921
vn 0.3373 -0.6382 -0.6921
vn 0.2451 -0.9678 0.0578
vn 0.1284 -0.5633 0.8162
vn 0.0765 -0.0000 0.9971
vn 0.1284 0.5633 0.8162
vn 0.2451 0.9678 0.0578
vn 0.6015 0.5585 -0.5712
vn 0.5193 0.8496 0.0918
vn 0.3948 0.5009 0.7702
vn 0.3139 -0.0000 0.9494
vn 0.3948 -0.5009 0.7702
vn 0.5193 -0.8496 0.0918
vn 0.6015 -0.5585 -0.5712
vn 0.5544 -0.0000 -0.8323
vt 0.221899 0.779015
vt 0.215603 0.784811
vt 0.200289 0.764021
vt 0.207180 0.759857
vt 0.188275 0.745043
vt 0.195166 0.740540
vt 0.176121 0.726296
vt 0.182548 0.720642
vt 0.164331 0.708946
vt 0.169652 0.702545
vt 0.152542 0.689722
vt 0.159392 0.684977
vt 0.136880 0.663661
vt 0.143535 0.658494
vt 0.122661 0.642202
vt 0.129239 0.637053
vt 0.111796 0.626259
vt 0.118216 0.620794
vt 0.103065 0.613349
vt 0.109235 0.607954
vt 0.095350 0.601347
vt 0.101525 0.596057
vt 0.087820 0.589335
vt 0.094294 0.584689
vt 0.080119 0.576453
vt 0.086843 0.571925
vt 0.071167 0.556372
vt 0.079677 0.553213
vt 0.168821 0.784522
vt 0.175422 0.779958
vt 0.188067 0.802491
vt 0.180177 0.805851
vt 0.156179 0.765638
vt 0.163137 0.761221
vt 0.143281 0.745931
vt 0.151092 0.742418
vt 0.132131 0.726703
vt 0.140164 0.724511
vt 0.120362 0.710079
vt 0.127520 0.705811
vt 0.102815 0.684641
vt 0.110291 0.680737
vt 0.089216 0.662719
vt 0.096777 0.658806
vt 0.079294 0.645679
vt 0.086749 0.642203
vt 0.071354 0.632156
vt 0.078808 0.628821
vt 0.063787 0.620170
vt 0.071175 0.616784
vt 0.056496 0.608842
vt 0.063436 0.604923
vt 0.048025 0.596724
vt 0.054964 0.592535
vt 0.034030 0.582358
vt 0.040476 0.575956
vt 0.161025 0.788638
vt 0.171187 0.808294
vt 0.148495 0.770088
vt 0.135348 0.750077
vt 0.124147 0.730881
vt 0.112950 0.715124
vt 0.095151 0.689365
vt 0.081355 0.667070
vt 0.071414 0.649835
vt 0.063677 0.636573
vt 0.056445 0.625066
vt 0.049381 0.614522
vt 0.041309 0.603119
vt 0.028266 0.590147
vt 0.210077 0.789133
vt 0.194771 0.767263
vt 0.182778 0.748584
vt 0.170957 0.730492
vt 0.159897 0.713590
vt 0.147087 0.693346
vt 0.131411 0.667740
vt 0.117306 0.646247
vt 0.106623 0.630425
vt 0.098120 0.617432
vt 0.090413 0.605339
vt 0.082744 0.593025
vt 0.074922 0.580176
vt 0.064211 0.559693
vt 0.180653 0.776295
vt 0.194310 0.799250
vt 0.168637 0.757683
vt 0.157047 0.739452
vt 0.146225 0.722396
vt 0.133079 0.702353
vt 0.116281 0.677460
vt 0.102688 0.655674
vt 0.092706 0.639227
vt 0.084589 0.626057
vt 0.076872 0.613982
vt 0.068917 0.601863
vt 0.060526 0.589373
vt 0.046438 0.571061
vt 0.187703 0.771771
vt 0.202408 0.794516
vt 0.175762 0.753219
vt 0.164145 0.735195
vt 0.153341 0.718430
vt 0.140081 0.697846
vt 0.123886 0.672660
vt 0.110162 0.651182
vt 0.099812 0.635114
vt 0.091507 0.621985
vt 0.083746 0.609821
vt 0.075845 0.597466
vt 0.067726 0.584777
vt 0.054977 0.564835
vt 0.214117 0.754385
vt 0.227803 0.771809
vt 0.202383 0.735381
vt 0.189602 0.715139
vt 0.176760 0.697009
vt 0.167048 0.680313
vt 0.151010 0.653491
vt 0.136535 0.631775
vt 0.125303 0.615431
vt 0.116478 0.602841
vt 0.109051 0.591445
vt 0.102435 0.580608
vt 0.095467 0.568506
vt 0.089164 0.551243
vt 0.514021 0.571785
vt 0.531309 0.569510
vt 0.532102 0.619704
vt 0.515119 0.621012
vt 0.517964 0.467874
vt 0.501213 0.472325
vt 0.487993 0.423470
vt 0.503558 0.417894
vt 0.279012 0.525487
vt 0.223837 0.535419
vt 0.217776 0.509796
vt 0.270621 0.494524
vt 0.206948 0.485499
vt 0.259754 0.464431
vt 0.841909 0.065681
vt 0.788743 0.035362
vt 0.800757 0.020427
vt 0.781982 0.053244
vt 0.196600 0.461020
vt 0.245796 0.435801
vt 0.816720 0.009870
vt 0.470358 0.375806
vt 0.485894 0.368945
vt 0.368904 0.464064
vt 0.355673 0.425125
vt 0.399132 0.406621
vt 0.414928 0.448788
vt 0.337946 0.388084
vt 0.380820 0.365732
vt 0.448685 0.329923
vt 0.464019 0.321651
vt 0.414514 0.348043
vt 0.434632 0.391386
vt 0.451131 0.436330
vt 0.425680 0.492337
vt 0.379701 0.503763
vt 0.463206 0.482528
vt 0.232034 0.586562
vt 0.287360 0.589123
vt 0.286936 0.621422
vt 0.231353 0.611896
vt 0.284691 0.556948
vt 0.230328 0.560840
vt 0.835198 0.004883
vt 0.854346 0.005754
vt 0.872228 0.012515
vt 0.525490 0.518882
vt 0.509096 0.522028
vt 0.433605 0.536618
vt 0.387135 0.544669
vt 0.471167 0.529490
vt 0.389738 0.628246
vt 0.390136 0.586245
vt 0.437445 0.581691
vt 0.437557 0.626932
vt 0.475480 0.576966
vt 0.476048 0.624266
vt 0.556011 0.460882
vt 0.568098 0.499378
vt 0.537215 0.510355
vt 0.524556 0.470101
vt 0.546329 0.421560
vt 0.514404 0.428931
vt 0.539265 0.381714
vt 0.506917 0.387222
vt 0.644641 0.400198
vt 0.697226 0.389483
vt 0.705147 0.419809
vt 0.652752 0.433896
vt 0.638016 0.366272
vt 0.691807 0.358703
vt 0.590417 0.411763
vt 0.584242 0.374468
vt 0.599621 0.448525
vt 0.746508 0.351484
vt 0.752517 0.378572
vt 0.757769 0.405982
vt 0.713854 0.449949
vt 0.662852 0.467076
vt 0.610936 0.484624
vt 0.767002 0.432223
vt 0.598952 0.573510
vt 0.617253 0.608873
vt 0.588349 0.624235
vt 0.569361 0.587618
vt 0.582449 0.536957
vt 0.552199 0.549571
vt 0.725258 0.479254
vt 0.675117 0.499614
vt 0.624428 0.519959
vt 0.775529 0.458728
vt 0.689173 0.531631
vt 0.737546 0.508405
vt 0.752339 0.536422
vt 0.705845 0.562440
vt 0.640158 0.554454
vt 0.657268 0.588237
vt 0.787847 0.483635
vt 0.799543 0.508667
vt 0.130424 0.015920
vt 0.144427 0.004883
vt 0.157107 0.019439
vt 0.143928 0.031379
vt 0.526244 0.715663
vt 0.508733 0.716146
vt 0.513009 0.669372
vt 0.529730 0.668620
vt 0.276177 0.685706
vt 0.224795 0.659555
vt 0.230502 0.636694
vt 0.283485 0.653533
vt 0.887163 0.024529
vt 0.897721 0.040492
vt 0.385436 0.670734
vt 0.434476 0.672529
vt 0.473441 0.671329
vt 0.427917 0.717515
vt 0.378570 0.713459
vt 0.468336 0.717584
vt 0.023423 0.327254
vt 0.007959 0.266852
vt 0.024666 0.263862
vt 0.032844 0.325020
vt 0.264474 0.716071
vt 0.217539 0.680297
vt 0.902707 0.058970
vt 0.246719 0.743096
vt 0.205445 0.696780
vt 0.901836 0.078117
vt 0.898456 0.087059
vt 0.895076 0.096000
vt 0.521295 0.759680
vt 0.504070 0.760599
vt 0.420770 0.762406
vt 0.368489 0.756618
vt 0.462735 0.762762
vt 0.052833 0.143792
vt 0.032115 0.131599
vt 0.064859 0.084062
vt 0.084280 0.096766
vt 0.357367 0.799966
vt 0.414028 0.806346
vt 0.293555 0.785667
vt 0.004883 0.208228
vt 0.022709 0.201013
vt 0.520773 0.800434
vt 0.503118 0.802817
vt 0.441086 0.813169
vt 0.459832 0.806926
vt 0.637365 0.642947
vt 0.658688 0.675637
vt 0.630643 0.692762
vt 0.608999 0.659357
vt 0.769005 0.563785
vt 0.724042 0.592994
vt 0.676844 0.620775
vt 0.812769 0.532606
vt 0.787236 0.590706
vt 0.744228 0.622611
vt 0.697937 0.652359
vt 0.829032 0.554032
vt 0.549441 0.004883
vt 0.582642 0.011597
vt 0.578193 0.029345
vt 0.545191 0.022347
vt 0.680506 0.707157
vt 0.652442 0.724611
vt 0.701828 0.737910
vt 0.673380 0.755262
vt 0.808481 0.615781
vt 0.766779 0.651617
vt 0.720228 0.683164
vt 0.845280 0.574486
vt 0.691578 0.036975
vt 0.746287 0.066501
vt 0.736115 0.080480
vt 0.683529 0.054754
vt 0.832417 0.639410
vt 0.791426 0.680099
vt 0.742707 0.713372
vt 0.631090 0.021045
vt 0.625640 0.039061
vt 0.864281 0.591005
vt 0.789783 0.107847
vt 0.781937 0.116703
vt 0.289561 0.139254
vt 0.301395 0.126446
vt 0.338874 0.159128
vt 0.326727 0.171040
vt 0.224718 0.070136
vt 0.213217 0.083267
vt 0.176606 0.057984
vt 0.188362 0.045405
vt 0.087675 0.279038
vt 0.073938 0.334502
vt 0.053320 0.326601
vt 0.056842 0.268103
vt 0.883061 0.110935
vt 0.867098 0.121492
vt 0.093091 0.163566
vt 0.122089 0.120128
vt 0.096404 0.071840
vt 0.113093 0.061674
vt 0.148578 0.088077
vt 0.160948 0.143558
vt 0.132539 0.184101
vt 0.186565 0.113102
vt 0.114875 0.359990
vt 0.143862 0.312929
vt 0.168476 0.333866
vt 0.133455 0.377638
vt 0.117029 0.294427
vt 0.095206 0.344862
vt 0.848620 0.126479
vt 0.829473 0.125608
vt 0.811590 0.118847
vt 0.262326 0.097717
vt 0.251244 0.110377
vt 0.199531 0.168454
vt 0.169820 0.205769
vt 0.225017 0.139388
vt 0.237196 0.257811
vt 0.204850 0.230736
vt 0.236322 0.195205
vt 0.270872 0.224276
vt 0.262666 0.167352
vt 0.298553 0.197858
vt 0.567758 0.065397
vt 0.557499 0.102746
vt 0.525016 0.096598
vt 0.535178 0.058596
vt 0.720906 0.110267
vt 0.669312 0.089561
vt 0.614128 0.074919
vt 0.769184 0.138238
vt 0.708894 0.140575
vt 0.657523 0.124250
vt 0.602832 0.111083
vt 0.760518 0.162642
vt 0.540979 0.180345
vt 0.535604 0.220129
vt 0.502868 0.218212
vt 0.508291 0.176765
vt 0.548373 0.141107
vt 0.515815 0.136080
vt 0.700322 0.171617
vt 0.647817 0.158412
vt 0.593593 0.148083
vt 0.752322 0.188026
vt 0.640307 0.192861
vt 0.693271 0.202624
vt 0.689168 0.233814
vt 0.635879 0.227599
vt 0.586385 0.185524
vt 0.580716 0.222946
vt 0.748141 0.214885
vt 0.743600 0.241825
vt 0.408435 0.233999
vt 0.394542 0.244356
vt 0.362048 0.206105
vt 0.374497 0.195189
vt 0.211858 0.381547
vt 0.168195 0.416564
vt 0.152520 0.395376
vt 0.191313 0.356875
vt 0.796655 0.106833
vt 0.786098 0.090870
vt 0.266522 0.287497
vt 0.303080 0.255863
vt 0.332287 0.231277
vt 0.331656 0.290596
vt 0.293581 0.318801
vt 0.362896 0.267680
vt 0.230110 0.407860
vt 0.184387 0.437479
vt 0.781111 0.072392
vt 0.436986 0.277211
vt 0.422923 0.286158
vt 0.357927 0.327003
vt 0.317799 0.352244
vt 0.390307 0.306721
vt 0.532724 0.260462
vt 0.532378 0.300945
vt 0.499639 0.302676
vt 0.499938 0.260336
vt 0.687050 0.265185
vt 0.633018 0.262331
vt 0.578043 0.260896
vt 0.740790 0.269113
vt 0.686157 0.296393
vt 0.632436 0.297131
vt 0.577655 0.298864
vt 0.741903 0.296601
vt 0.534555 0.341416
vt 0.501961 0.345029
vt 0.688372 0.327556
vt 0.634233 0.331775
vt 0.579682 0.336750
vt 0.742231 0.324182
vt 0.035913 0.163815
vt 0.023226 0.148509
vt 0.330917 0.799845
vt 0.473322 0.811529
vt 0.118188 0.048458
vt 0.856844 0.828297
vt 0.860356 0.826710
vt 0.870097 0.861799
vt 0.866266 0.862223
vt 0.837549 0.798876
vt 0.840400 0.796280
vt 0.809931 0.777023
vt 0.811846 0.773677
vt 0.868433 0.898078
vt 0.864657 0.897296
vt 0.777047 0.764478
vt 0.777843 0.760708
vt 0.741960 0.762802
vt 0.741550 0.758968
vt 0.707967 0.772153
vt 0.706394 0.768635
vt 0.678423 0.791405
vt 0.675845 0.788539
vt 0.656362 0.818985
vt 0.653030 0.817048
vt 0.643651 0.852079
vt 0.639888 0.851240
vt 0.638872 0.869592
vt 0.642712 0.869766
vt 0.642061 0.887462
vt 0.638249 0.887957
vt 0.651756 0.921559
vt 0.648260 0.923182
vt 0.671254 0.951016
vt 0.668428 0.953639
vt 0.698977 0.972800
vt 0.697095 0.976162
vt 0.732010 0.985182
vt 0.731250 0.988960
vt 0.767113 0.986670
vt 0.767559 0.990500
vt 0.800992 0.977144
vt 0.802598 0.980647
vt 0.830299 0.957773
vt 0.832904 0.960616
vt 0.852190 0.930228
vt 0.855539 0.932135
vt 0.874719 0.861286
vt 0.872986 0.899014
vt 0.864588 0.824793
vt 0.843836 0.793145
vt 0.814151 0.769644
vt 0.778798 0.756157
vt 0.741054 0.754345
vt 0.704495 0.764395
vt 0.672733 0.785082
vt 0.649013 0.814715
vt 0.635343 0.850265
vt 0.634284 0.869386
vt 0.633636 0.888520
vt 0.644048 0.925143
vt 0.665023 0.956807
vt 0.694828 0.980217
vt 0.730340 0.993520
vt 0.768099 0.995117
vt 0.804539 0.984868
vt 0.836049 0.964043
vt 0.859577 0.934431
vt 0.348467 0.113716
vt 0.340409 0.102491
vt 0.379601 0.082296
vt 0.335951 0.089384
vt 0.335958 0.075572
vt 0.359764 0.121660
vt 0.372904 0.125969
vt 0.411018 0.113457
vt 0.399806 0.121513
vt 0.386709 0.125973
vt 0.418955 0.102161
vt 0.423267 0.089022
vt 0.410778 0.050887
vt 0.418802 0.062117
vt 0.423215 0.075221
vt 0.423244 0.082122
vt 0.399497 0.042940
vt 0.386362 0.038624
vt 0.348220 0.051128
vt 0.359447 0.043070
vt 0.372554 0.038614
vt 0.340271 0.062426
vt 0.324534 0.137932
vt 0.309998 0.118211
vt 0.302416 0.094886
vt 0.302212 0.070425
vt 0.344387 0.152314
vt 0.367787 0.159723
vt 0.435250 0.137378
vt 0.415552 0.151919
vt 0.392242 0.159508
vt 0.449584 0.117542
vt 0.456887 0.094186
vt 0.434806 0.026744
vt 0.449309 0.046489
vt 0.456793 0.069803
vt 0.456992 0.081994
vt 0.414964 0.012322
vt 0.391560 0.004883
vt 0.324027 0.027173
vt 0.343758 0.012643
vt 0.367093 0.005072
vt 0.309633 0.047023
vt 0.078280 0.066600
vt 0.111154 0.032814
vt 0.233509 0.753739
vt 0.197590 0.702418
vt 0.276313 0.794420
vt 0.334454 0.819408
vt 0.353206 0.823620
vt 0.411085 0.829369
vt 0.433212 0.830416
vt 0.506196 0.823117
vt 0.480781 0.826975
vt 0.523686 0.819528
vt 0.711759 0.753259
vt 0.682956 0.770397
vt 0.753619 0.728709
vt 0.804659 0.694459
vt 0.846425 0.649583
vt 0.874492 0.597031
vt 0.322711 0.438870
vt 0.306826 0.404335
vt 0.287422 0.371398
vt 0.265708 0.339907
vt 0.240266 0.311015
vt 0.213207 0.283165
vt 0.182845 0.258067
vt 0.149608 0.235207
vt 0.114209 0.214757
vt 0.075344 0.197735
vt 0.034022 0.183815
vt 0.314239 0.788286
vt 0.330587 0.747951
vt 0.342877 0.707453
vt 0.350013 0.667159
vt 0.354645 0.627382
vt 0.354943 0.588379
vt 0.351737 0.549776
vt 0.345640 0.511752
vt 0.335104 0.474984
vt 0.077475 0.544288
vt 0.067854 0.547007
vt 0.065659 0.538266
vt 0.076701 0.535855
vt 0.059369 0.550613
vt 0.055543 0.542074
vt 0.049497 0.556271
vt 0.044658 0.548723
vt 0.040177 0.562817
vt 0.034022 0.555765
vt 0.033339 0.568999
vt 0.026329 0.563353
vt 0.026836 0.576596
vt 0.019490 0.572351
vt 0.021778 0.586205
vt 0.014991 0.584652
vt 0.088319 0.543706
vt 0.089761 0.536896
vt 0.076325 0.524667
vt 0.092945 0.527233
vt 0.004883 0.583492
vt 0.009473 0.567313
vt 0.016846 0.556443
vt 0.025605 0.546534
vt 0.038489 0.539075
vt 0.050712 0.530568
vt 0.063378 0.526809
vt 0.236157 0.776651
vt 0.231363 0.786116
vt 0.182754 0.817404
vt 0.172161 0.817878
vt 0.192402 0.814375
vt 0.199903 0.810879
vt 0.209278 0.805206
vt 0.218333 0.799033
vt 0.224622 0.793654
vt 0.240991 0.791323
vt 0.233246 0.800941
vt 0.225994 0.807594
vt 0.215272 0.814518
vt 0.204526 0.821400
vt 0.195472 0.825245
vt 0.183520 0.828325
vt 0.170582 0.826873
vt 0.245007 0.778930
vt 0.247664 0.794769
vt 0.239427 0.806177
vt 0.231349 0.813324
vt 0.219131 0.820516
vt 0.207523 0.828647
vt 0.197682 0.833039
vt 0.183903 0.835825
vt 0.168184 0.833167
vt 0.251730 0.779345
s 1
usemtl standardSurface2SG
f 2/1/1 1/2/2 9/3/3 22/4/4
f 22/4/4 9/3/3 10/5/5 23/6/6
f 23/6/6 10/5/5 11/7/7 24/8/8
f 24/8/8 11/7/7 12/9/9 25/10/10
f 25/10/10 12/9/9 13/11/11 26/12/12
f 26/12/12 13/11/11 14/13/13 27/14/14
f 27/14/14 14/13/13 15/15/15 28/16/16
f 28/16/16 15/15/15 16/17/17 29/18/18
f 29/18/18 16/17/17 17/19/19 30/20/20
f 30/20/20 17/19/19 18/21/21 31/22/22
f 31/22/22 18/21/21 19/23/23 32/24/24
f 32/24/24 19/23/23 20/25/25 33/26/26
f 33/26/26 20/25/25 21/27/27 34/28/28
f 48/29/29 35/30/30 3/31/31 4/32/32
f 35/30/30 48/29/29 49/33/33 36/34/34
f 36/34/34 49/33/33 50/35/35 37/36/36
f 37/36/36 50/35/35 51/37/37 38/38/38
f 38/38/38 51/37/37 52/39/39 39/40/40
f 39/40/40 52/39/39 53/41/41 40/42/42
f 40/42/42 53/41/41 54/43/43 41/44/44
f 41/44/44 54/43/43 55/45/45 42/46/46
f 42/46/46 55/45/45 56/47/47 43/48/48
f 43/48/48 56/47/47 57/49/49 44/50/50
f 44/50/50 57/49/49 58/51/51 45/52/52
f 45/52/52 58/51/51 59/53/53 46/54/54
f 46/54/54 59/53/53 60/55/55 47/56/56
f 61/57/57 48/29/29 4/32/32 5/58/58
f 48/29/29 61/57/57 62/59/59 49/33/33
f 49/33/33 62/59/59 63/60/60 50/35/35
f 50/35/35 63/60/60 64/61/61 51/37/37
f 51/37/37 64/61/61 65/62/62 52/39/39
f 52/39/39 65/62/62 66/63/63 53/41/41
f 53/41/41 66/63/63 67/64/64 54/43/43
f 54/43/43 67/64/64 68/65/65 55/45/45
f 55/45/45 68/65/65 69/66/66 56/47/47
f 56/47/47 69/66/66 70/67/67 57/49/49
f 57/49/49 70/67/67 71/68/68 58/51/51
f 58/51/51 71/68/68 72/69/69 59/53/53
f 59/53/53 72/69/69 73/70/70 60/55/55
f 9/3/3 1/2/2 6/71/71 74/72/72
f 9/3/3 74/72/72 75/73/73 10/5/5
f 10/5/5 75/73/73 76/74/74 11/7/7
f 11/7/7 76/74/74 77/75/75 12/9/9
f 12/9/9 77/75/75 78/76/76 13/11/11
f 13/11/11 78/76/76 79/77/77 14/13/13
f 14/13/13 79/77/77 80/78/78 15/15/15
f 15/15/15 80/78/78 81/79/79 16/17/17
f 16/17/17 81/79/79 82/80/80 17/19/19
f 17/19/19 82/80/80 83/81/81 18/21/21
f 18/21/21 83/81/81 84/82/82 19/23/23
f 19/23/23 84/82/82 85/83/83 20/25/25
f 20/25/25 85/83/83 86/84/84 21/27/27
f 3/31/31 35/30/30 87/85/85 7/86/86
f 87/85/85 35/30/30 36/34/34 88/87/87
f 88/87/87 36/34/34 37/36/36 89/88/88
f 89/88/88 37/36/36 38/38/38 90/89/89
f 90/89/89 38/38/38 39/40/40 91/90/90
f 91/90/90 39/40/40 40/42/42 92/91/91
f 92/91/91 40/42/42 41/44/44 93/92/92
f 93/92/92 41/44/44 42/46/46 94/93/93
f 94/93/93 42/46/46 43/48/48 95/94/94
f 95/94/94 43/48/48 44/50/50 96/95/95
f 96/95/95 44/50/50 45/52/52 97/96/96
f 97/96/96 45/52/52 46/54/54 98/97/97
f 98/97/97 46/54/54 47/56/56 99/98/98
f 100/99/99 74/72/72 6/71/71 8/100/100
f 74/72/72 100/99/99 101/101/101 75/73/73
f 75/73/73 101/101/101 102/102/102 76/74/74
f 76/74/74 102/102/102 103/103/103 77/75/75
f 77/75/75 103/103/103 104/104/104 78/76/76
f 78/76/76 104/104/104 105/105/105 79/77/77
f 79/77/77 105/105/105 106/106/106 80/78/78
f 80/78/78 106/106/106 107/107/107 81/79/79
f 81/79/79 107/107/107 108/108/108 82/80/80
f 82/80/80 108/108/108 109/109/109 83/81/81
f 83/81/81 109/109/109 110/110/110 84/82/82
f 84/82/82 110/110/110 111/111/111 85/83/83
f 85/83/83 111/111/111 112/112/112 86/84/84
f 2/1/1 22/4/4 61/113/57 5/114/58
f 61/113/57 22/4/4 23/6/6 62/115/59
f 62/115/59 23/6/6 24/8/8 63/116/60
f 63/116/60 24/8/8 25/10/10 64/117/61
f 64/117/61 25/10/10 26/12/12 65/118/62
f 65/118/62 26/12/12 27/14/14 66/119/63
f 66/119/63 27/14/14 28/16/16 67/120/64
f 67/120/64 28/16/16 29/18/18 68/121/65
f 68/121/65 29/18/18 30/20/20 69/122/66
f 69/122/66 30/20/20 31/22/22 70/123/67
f 70/123/67 31/22/22 32/24/24 71/124/68
f 71/124/68 32/24/24 33/26/26 72/125/69
f 72/125/69 33/26/26 34/28/28 73/126/70
f 7/86/86 87/85/85 100/99/99 8/100/100
f 100/99/99 87/85/85 88/87/87 101/101/101
f 101/101/101 88/87/87 89/88/88 102/102/102
f 102/102/102 89/88/88 90/89/89 103/103/103
f 103/103/103 90/89/89 91/90/90 104/104/104
f 104/104/104 91/90/90 92/91/91 105/105/105
f 105/105/105 92/91/91 93/92/92 106/106/106
f 106/106/106 93/92/92 94/93/93 107/107/107
f 107/107/107 94/93/93 95/94/94 108/108/108
f 108/108/108 95/94/94 96/95/95 109/109/109
f 109/109/109 96/95/95 97/96/96 110/110/110
f 110/110/110 97/96/96 98/97/97 111/111/111
f 111/111/111 98/97/97 99/98/98 112/112/112
f 138/127/113 137/128/114 167/129/115 168/130/116
f 113/131/117 128/132/118 127/133/119 126/134/120
f 115/135/121 120/136/122 119/137/123 118/138/124
f 117/139/125 116/140/126 118/138/124 119/137/123
f 114/141/127 117/142/125 119/143/123
f 117/142/125 114/141/127 269/144/128
f 116/140/126 117/139/125 269/145/128 268/146/129
f 114/141/127 119/143/123 120/147/122
f 123/148/130 122/149/131 126/134/120 127/133/119
f 315/150/132 296/151/133 121/152/134 125/153/135
f 121/152/134 296/151/133 297/154/136 273/155/137
f 122/149/131 123/148/130 275/156/138 274/157/139
f 335/158/140 316/159/141 121/152/134 273/155/137
f 125/153/135 121/152/134 316/159/141 317/160/142
f 124/161/143 314/162/144 315/150/132 125/153/135
f 124/161/143 125/153/135 317/160/142 318/163/145
f 132/164/146 131/165/147 161/166/148 162/167/149
f 129/168/150 130/169/151 120/136/122 115/135/121
f 114/141/127 120/147/122 130/170/151
f 130/169/151 129/168/150 131/165/147 132/164/146
f 114/141/127 130/170/151 132/171/146
f 114/141/127 132/171/146 162/172/149
f 133/173/152 135/174/153 128/132/118 113/131/117
f 134/175/154 313/176/155 314/162/144 124/161/143
f 134/175/154 124/161/143 318/163/145 319/177/156
f 311/178/157 312/179/158 136/180/159 166/181/160
f 312/179/158 313/176/155 134/175/154 136/180/159
f 135/174/153 133/173/152 137/128/114 138/127/113
f 136/180/159 134/175/154 319/177/156 320/182/161
f 166/181/160 136/180/159 320/182/161 321/183/162
f 398/184/163 399/185/164 339/186/165 336/187/166
f 397/188/167 398/184/163 336/187/166 340/189/168
f 416/190/169 397/188/167 340/189/168 374/191/170
f 143/192/171 142/193/172 146/194/173 147/195/174
f 142/193/172 143/192/171 294/196/175 293/197/176
f 143/192/171 140/198/177 289/199/178 294/196/175
f 141/200/179 140/198/177 143/192/171 147/195/174
f 295/201/180 144/202/181 142/193/172 293/197/176
f 142/193/172 144/202/181 149/203/182 146/194/173
f 145/204/183 148/205/184 147/195/174 146/194/173
f 139/206/185 141/200/179 147/195/174 148/205/184
f 145/204/183 146/194/173 149/203/182 150/207/186
f 401/208/187 402/209/188 347/210/189 345/211/190
f 399/185/164 400/212/191 343/213/192 339/186/165
f 400/212/191 401/208/187 345/211/190 343/213/192
f 153/214/193 154/215/194 148/205/184 145/204/183
f 151/216/195 139/206/185 148/205/184 154/215/194
f 153/214/193 145/204/183 150/207/186 155/217/196
f 157/218/197 156/219/198 188/220/199 189/221/200
f 154/215/194 153/214/193 156/219/198 157/218/197
f 152/222/201 151/216/195 154/215/194 157/218/197
f 152/222/201 157/218/197 189/221/200 186/223/202
f 156/219/198 153/214/193 155/217/196 158/224/203
f 156/219/198 158/224/203 190/225/204 188/220/199
f 428/226/205 429/227/206 214/228/207 215/229/208
f 159/230/209 173/231/210 172/232/211 171/233/212
f 160/234/213 165/235/214 164/236/215 163/237/216
f 162/167/149 161/166/148 163/237/216 164/236/215
f 114/141/127 162/172/149 164/238/215
f 114/141/127 164/238/215 165/239/214
f 168/130/116 167/129/115 171/233/212 172/232/211
f 310/240/217 311/178/157 166/181/160 170/241/218
f 170/241/218 166/181/160 321/183/162 322/242/219
f 169/243/220 309/244/221 310/240/217 170/241/218
f 169/243/220 170/241/218 322/242/219 323/245/222
f 421/246/223 422/247/224 207/248/225 208/249/226
f 174/250/227 175/251/228 165/235/214 160/234/213
f 114/141/127 165/239/214 175/252/228
f 175/251/228 174/250/227 176/253/229 177/254/230
f 114/141/127 175/252/228 177/255/230
f 114/141/127 177/255/230 421/256/223 208/257/226
f 178/258/231 180/259/232 173/231/210 159/230/209
f 179/260/233 308/261/234 309/244/221 169/243/220
f 179/260/233 169/243/220 323/245/222 324/262/235
f 306/263/236 424/264/237 425/265/238 212/266/239
f 307/267/240 308/261/234 179/260/233 181/268/241
f 176/253/229 174/250/227 182/269/242
f 422/247/224 423/270/243 213/271/244 207/248/225
f 180/259/232 178/258/231 183/272/245 184/273/246
f 418/274/247 179/260/233 324/262/235 325/275/248
f 403/276/249 404/277/250 351/278/251 348/279/252
f 402/209/188 403/276/249 348/279/252 347/210/189
f 189/221/200 188/220/199 192/280/253 193/281/254
f 187/282/255 186/223/202 189/221/200 193/281/254
f 188/220/199 190/225/204 195/283/256 192/280/253
f 191/284/257 194/285/258 193/281/254 192/280/253
f 185/286/259 187/282/255 193/281/254 194/285/258
f 191/284/257 192/280/253 195/283/256 196/287/260
f 431/288/261 432/289/262 407/290/263 357/291/264
f 404/277/250 405/292/265 353/293/266 351/278/251
f 405/292/265 406/294/267 355/295/268 353/293/266
f 199/296/269 200/297/270 194/285/258 191/284/257
f 197/298/271 185/286/259 194/285/258 200/297/270
f 199/296/269 191/284/257 196/287/260 201/299/272
f 434/300/273 435/301/274 234/302/275 235/303/276
f 200/297/270 199/296/269 202/304/277 203/305/278
f 198/306/279 197/298/271 200/297/270 203/305/278
f 433/307/280 434/300/273 235/303/276 232/308/281
f 202/304/277 199/296/269 201/299/272 204/309/282
f 435/301/274 436/310/283 236/311/284 234/302/275
f 230/312/285 229/313/286 259/314/287 260/315/288
f 205/316/289 220/317/290 219/318/291 218/319/292
f 206/320/293 211/321/294 210/322/295 209/323/296
f 208/249/226 207/248/225 209/323/296 210/322/295
f 114/141/127 208/257/226 210/324/295
f 114/141/127 210/324/295 211/325/294
f 215/229/208 214/228/207 218/319/292 219/318/291
f 305/326/297 306/263/236 212/266/239 217/327/298
f 209/323/296 207/248/225 213/271/244
f 217/327/298 417/328/299 326/329/300 327/330/301
f 216/331/302 304/332/303 305/326/297 217/327/298
f 216/331/302 217/327/298 327/330/301 328/333/304
f 224/334/305 223/335/306 253/336/307 254/337/308
f 221/338/309 222/339/310 211/321/294 206/320/293
f 114/141/127 211/325/294 222/340/310
f 222/339/310 221/338/309 223/335/306 224/334/305
f 114/141/127 222/340/310 224/341/305
f 114/141/127 224/341/305 254/342/308
f 225/343/311 227/344/312 220/317/290 205/316/289
f 226/345/313 303/346/314 304/332/303 216/331/302
f 226/345/313 216/331/302 328/333/304 329/347/315
f 301/348/316 302/349/317 228/350/318 258/351/319
f 302/349/317 303/346/314 226/345/313 228/350/318
f 227/344/312 225/343/311 229/313/286 230/312/285
f 228/350/318 226/345/313 329/347/315 330/352/320
f 258/351/319 228/350/318 330/352/320 331/353/321
f 408/354/322 409/355/323 361/356/324 358/357/325
f 407/290/263 408/354/322 358/357/325 357/291/264
f 235/303/276 234/302/275 238/358/326 239/359/327
f 233/360/328 232/308/281 235/303/276 239/359/327
f 234/302/275 236/311/284 241/361/329 238/358/326
f 237/362/330 240/363/331 239/359/327 238/358/326
f 231/364/332 233/360/328 239/359/327 240/363/331
f 237/362/330 238/358/326 241/361/329 242/365/333
f 411/366/334 412/367/335 367/368/336 365/369/337
f 409/355/323 410/370/338 363/371/339 361/356/324
f 410/370/338 411/366/334 365/369/337 363/371/339
f 245/372/340 246/373/341 240/363/331 237/362/330
f 243/374/342 231/364/332 240/363/331 246/373/341
f 245/372/340 237/362/330 242/365/333 247/375/343
f 249/376/344 248/377/345 279/378/346 280/379/347
f 246/373/341 245/372/340 248/377/345 249/376/344
f 244/380/348 243/374/342 246/373/341 249/376/344
f 244/380/348 249/376/344 280/379/347 277/381/349
f 248/377/345 245/372/340 247/375/343 250/382/350
f 248/377/345 250/382/350 281/383/351 279/378/346
f 251/384/352 265/385/353 264/386/354 263/387/355
f 252/388/356 257/389/357 256/390/358 255/391/359
f 254/337/308 253/336/307 255/391/359 256/390/358
f 114/141/127 254/342/308 256/392/358
f 114/141/127 256/392/358 257/393/357
f 260/315/288 259/314/287 263/387/355 264/386/354
f 300/394/360 301/348/316 258/351/319 262/395/361
f 262/395/361 258/351/319 331/353/321 332/396/362
f 261/397/363 299/398/364 300/394/360 262/395/361
f 261/397/363 262/395/361 332/396/362 333/399/365
f 266/400/366 267/401/367 257/389/357 252/388/356
f 114/141/127 257/393/357 267/402/367
f 267/401/367 266/400/366 268/146/129 269/145/128
f 114/141/127 267/402/367 269/144/128
f 270/403/368 272/404/369 265/385/353 251/384/352
f 271/405/370 298/406/371 299/398/364 261/397/363
f 271/405/370 261/397/363 333/399/365 334/407/372
f 297/154/136 298/406/371 271/405/370 273/155/137
f 272/404/369 270/403/368 274/157/139 275/156/138
f 273/155/137 271/405/370 334/407/372 335/158/140
f 413/408/373 414/409/374 371/410/375 368/411/376
f 412/367/335 413/408/373 368/411/376 367/368/336
f 280/379/347 279/378/346 283/412/377 284/413/378
f 278/414/379 277/381/349 280/379/347 284/413/378
f 279/378/346 281/383/351 286/415/380 283/412/377
f 282/416/381 285/417/382 284/413/378 283/412/377
f 276/418/383 278/414/379 284/413/378 285/417/382
f 282/416/381 283/412/377 286/415/380 287/419/384
f 414/409/374 415/420/385 373/421/386 371/410/375
f 415/420/385 416/190/169 374/191/170 373/421/386
f 290/422/387 291/423/388 285/417/382 282/416/381
f 288/424/389 276/418/383 285/417/382 291/423/388
f 290/422/387 282/416/381 287/419/384 292/425/390
f 291/423/388 290/422/387 293/197/176 294/196/175
f 289/199/178 288/424/389 291/423/388 294/196/175
f 293/197/176 290/422/387 292/425/390 295/201/180
f 305/326/297 438/426/391 306/263/236
f 438/426/391 439/427/392 424/264/237 306/263/236
f 440/428/393 308/261/234 307/267/240
f 317/160/142 316/159/141 123/148/130 127/133/119
f 318/163/145 317/160/142 127/133/119 128/132/118
f 319/177/156 318/163/145 128/132/118 135/174/153
f 320/182/161 319/177/156 135/174/153 138/127/113
f 321/183/162 320/182/161 138/127/113 168/130/116
f 322/242/219 321/183/162 168/130/116 172/232/211
f 323/245/222 322/242/219 172/232/211 173/231/210
f 324/262/235 323/245/222 173/231/210 180/259/232
f 325/275/248 324/262/235 180/259/232 419/429/394
f 327/330/301 326/329/300 420/430/395 219/318/291
f 328/333/304 327/330/301 219/318/291 220/317/290
f 329/347/315 328/333/304 220/317/290 227/344/312
f 330/352/320 329/347/315 227/344/312 230/312/285
f 331/353/321 330/352/320 230/312/285 260/315/288
f 332/396/362 331/353/321 260/315/288 264/386/354
f 333/399/365 332/396/362 264/386/354 265/385/353
f 334/407/372 333/399/365 265/385/353 272/404/369
f 335/158/140 334/407/372 272/404/369 275/156/138
f 275/156/138 123/148/130 316/159/141 335/158/140
f 336/431/166 337/432/396 341/433/397 340/434/168
f 337/432/396 336/431/166 339/435/165 338/436/398
f 338/436/398 339/435/165 343/437/192 342/438/399
f 340/434/168 341/433/397 375/439/400 374/440/170
f 342/438/399 343/437/192 345/441/190 344/442/401
f 344/442/401 345/441/190 347/443/189 346/444/402
f 346/444/402 347/443/189 348/445/252 349/446/403
f 349/446/403 348/445/252 351/447/251 350/448/404
f 350/448/404 351/447/251 353/449/266 352/450/405
f 352/450/405 353/449/266 355/451/268 354/452/406
f 430/453/407 431/454/261 357/455/264 356/456/408
f 356/456/408 357/455/264 358/457/325 359/458/409
f 359/458/409 358/457/325 361/459/324 360/460/410
f 360/460/410 361/459/324 363/461/339 362/462/411
f 362/462/411 363/461/339 365/463/337 364/464/412
f 364/464/412 365/463/337 367/465/336 366/466/413
f 366/466/413 367/465/336 368/467/376 369/468/414
f 369/468/414 368/467/376 371/469/375 370/470/415
f 370/470/415 371/469/375 373/471/386 372/472/416
f 372/472/416 373/471/386 374/440/170 375/439/400
f 341/433/397 122/473/131 274/474/139 375/439/400
f 126/475/120 122/473/131 341/433/397 337/432/396
f 113/476/117 126/475/120 337/432/396 338/436/398
f 133/477/152 113/476/117 338/436/398 342/438/399
f 137/478/114 133/477/152 342/438/399 344/442/401
f 137/478/114 344/442/401 346/444/402 167/479/115
f 171/480/212 167/479/115 346/444/402 349/446/403
f 159/481/209 171/480/212 349/446/403 350/448/404
f 178/482/231 159/481/209 350/448/404 352/450/405
f 183/483/245 178/482/231 352/450/405 354/452/406
f 429/484/206 430/453/407 356/456/408 214/485/207
f 218/486/292 214/485/207 356/456/408 359/458/409
f 205/487/289 218/486/292 359/458/409 360/460/410
f 225/488/311 205/487/289 360/460/410 362/462/411
f 229/489/286 225/488/311 362/462/411 364/464/412
f 229/489/286 364/464/412 366/466/413 259/490/287
f 263/491/355 259/490/287 366/466/413 369/468/414
f 251/492/352 263/491/355 369/468/414 370/470/415
f 270/493/368 251/492/352 370/470/415 372/472/416
f 274/474/139 270/493/368 372/472/416 375/439/400
f 376/494/417 377/495/418 378/496/419
f 379/497/420 380/498/421 378/496/419
f 377/495/418 379/497/420 378/496/419
f 381/499/422 376/494/417 378/496/419
f 382/500/423 381/499/422 378/496/419
f 383/501/424 384/502/425 378/496/419
f 385/503/426 382/500/423 378/496/419
f 384/502/425 385/503/426 378/496/419
f 386/504/427 383/501/424 378/496/419
f 387/505/428 386/504/427 378/496/419
f 388/506/429 389/507/430 378/496/419
f 390/508/431 437/509/432 387/505/428 378/496/419
f 389/507/430 390/508/431 378/496/419
f 391/510/433 388/506/429 378/496/419
f 392/511/434 391/510/433 378/496/419
f 393/512/435 394/513/436 378/496/419
f 395/514/437 392/511/434 378/496/419
f 394/513/436 395/514/437 378/496/419
f 396/515/438 393/512/435 378/496/419
f 380/498/421 396/515/438 378/496/419
f 150/516/186 149/517/182 377/495/418 376/494/417
f 144/518/181 295/519/180 380/498/421 379/497/420
f 149/517/182 144/518/181 379/497/420 377/495/418
f 155/520/196 150/516/186 376/494/417 381/499/422
f 158/521/203 155/520/196 381/499/422 382/500/423
f 196/522/260 195/523/256 384/502/425 383/501/424
f 190/524/204 158/521/203 382/500/423 385/503/426
f 195/523/256 190/524/204 385/503/426 384/502/425
f 201/525/272 196/522/260 383/501/424 386/504/427
f 204/526/282 201/525/272 386/504/427 387/505/428
f 242/527/333 241/528/329 389/507/430 388/506/429
f 236/529/284 436/530/283 437/509/432 390/508/431
f 241/528/329 236/529/284 390/508/431 389/507/430
f 247/531/343 242/527/333 388/506/429 391/510/433
f 250/532/350 247/531/343 391/510/433 392/511/434
f 287/533/384 286/534/380 394/513/436 393/512/435
f 281/535/351 250/532/350 392/511/434 395/514/437
f 286/534/380 281/535/351 395/514/437 394/513/436
f 292/536/390 287/533/384 393/512/435 396/515/438
f 295/519/180 292/536/390 396/515/438 380/498/421
f 140/198/177 141/200/179 398/184/163 397/188/167
f 141/200/179 139/206/185 399/185/164 398/184/163
f 139/206/185 151/216/195 400/212/191 399/185/164
f 151/216/195 152/222/201 401/208/187 400/212/191
f 152/222/201 186/223/202 402/209/188 401/208/187
f 186/223/202 187/282/255 403/276/249 402/209/188
f 187/282/255 185/286/259 404/277/250 403/276/249
f 185/286/259 197/298/271 405/292/265 404/277/250
f 197/298/271 198/306/279 406/294/267 405/292/265
f 432/289/262 433/307/280 232/308/281 407/290/263
f 232/308/281 233/360/328 408/354/322 407/290/263
f 233/360/328 231/364/332 409/355/323 408/354/322
f 231/364/332 243/374/342 410/370/338 409/355/323
f 243/374/342 244/380/348 411/366/334 410/370/338
f 244/380/348 277/381/349 412/367/335 411/366/334
f 277/381/349 278/414/379 413/408/373 412/367/335
f 278/414/379 276/418/383 414/409/374 413/408/373
f 276/418/383 288/424/389 415/420/385 414/409/374
f 288/424/389 289/199/178 416/190/169 415/420/385
f 289/199/178 140/198/177 397/188/167 416/190/169
f 212/266/239 417/328/299 217/327/298
f 425/265/238 426/537/439 417/328/299 212/266/239
f 181/268/241 179/260/233 418/274/247
f 419/429/394 180/259/232 184/273/246
f 420/430/395 427/538/440 428/226/205 215/229/208
f 219/318/291 420/430/395 215/229/208
f 177/254/230 176/253/229 422/539/224 421/540/223
f 176/253/229 182/269/242 423/541/243 422/539/224
f 439/542/392 440/428/393 307/267/240 424/543/237
f 425/544/238 424/543/237 307/267/240 181/268/241
f 181/268/241 418/274/247 426/545/439 425/544/238
f 428/546/205 427/547/440 419/429/394 184/273/246
f 184/273/246 183/272/245 429/548/206 428/546/205
f 183/483/245 354/452/406 430/453/407 429/484/206
f 354/452/406 355/451/268 431/454/261 430/453/407
f 406/294/267 432/549/262 431/550/261 355/295/268
f 198/306/279 433/551/280 432/549/262 406/294/267
f 198/306/279 203/305/278 434/552/273 433/551/280
f 203/305/278 202/304/277 435/553/274 434/552/273
f 202/304/277 204/309/282 436/554/283 435/553/274
f 437/509/432 436/530/283 204/526/282 387/505/428
f 297/154/136 296/151/133 441/555/441 442/556/442
f 442/556/442 443/557/443 298/406/371 297/154/136
f 299/398/364 298/406/371 443/557/443 444/558/444
f 300/394/360 299/398/364 444/558/444 445/559/445
f 445/559/445 446/560/446 301/348/316 300/394/360
f 446/560/446 447/561/447 302/349/317 301/348/316
f 447/561/447 448/562/448 303/346/314 302/349/317
f 304/332/303 303/346/314 448/562/448 449/563/449
f 305/326/297 304/332/303 449/563/449 450/564/450
f 450/564/450 451/565/451 438/426/391 305/326/297
f 452/566/452 453/567/453 308/261/234 440/428/393
f 309/244/221 308/261/234 453/567/453 454/568/454
f 310/240/217 309/244/221 454/568/454 455/569/455
f 455/569/455 456/570/456 311/178/157 310/240/217
f 456/570/456 457/571/457 312/179/158 311/178/157
f 457/571/457 458/572/458 313/176/155 312/179/158
f 314/162/144 313/176/155 458/572/458 459/573/459
f 315/150/132 314/162/144 459/573/459 460/574/460
f 460/574/460 441/555/441 296/151/133 315/150/132
f 442/556/442 441/555/441 116/140/126 268/146/129
f 266/400/366 443/557/443 442/556/442 268/146/129
f 444/558/444 443/557/443 266/400/366 252/388/356
f 445/559/445 444/558/444 252/388/356 255/391/359
f 253/336/307 446/560/446 445/559/445 255/391/359
f 223/335/306 447/561/447 446/560/446 253/336/307
f 221/338/309 448/562/448 447/561/447 223/335/306
f 449/563/449 448/562/448 221/338/309 206/320/293
f 450/564/450 449/563/449 206/320/293 209/323/296
f 213/271/244 451/565/451 450/564/450 209/323/296
f 174/250/227 453/567/453 452/566/452 182/269/242
f 454/568/454 453/567/453 174/250/227 160/234/213
f 455/569/455 454/568/454 160/234/213 163/237/216
f 161/166/148 456/570/456 455/569/455 163/237/216
f 131/165/147 457/571/457 456/570/456 161/166/148
f 129/168/150 458/572/458 457/571/457 131/165/147
f 459/573/459 458/572/458 129/168/150 115/135/121
f 460/574/460 459/573/459 115/135/121 118/138/124
f 116/140/126 441/555/441 460/574/460 118/138/124
f 469/575/461 470/576/462 468/577/463 461/578/464
f 470/576/462 471/579/465 467/580/466 468/577/463
f 471/579/465 472/581/467 466/582/468 467/580/466
f 472/581/467 473/583/469 465/584/470 466/582/468
f 473/583/469 474/585/471 464/586/472 465/584/470
f 474/585/471 475/587/473 463/588/474 464/586/472
f 475/587/473 476/589/475 462/590/476 463/588/474
f 476/591/475 469/575/461 461/578/464 462/592/476
f 462/592/476 461/578/464 440/593/393 439/594/392
f 463/588/474 462/590/476 439/595/392 438/596/391
f 464/586/472 463/588/474 438/596/391 451/597/451
f 465/584/470 464/586/472 451/597/451 213/598/244
f 466/582/468 465/584/470 213/598/244 423/599/243
f 467/580/466 466/582/468 423/599/243 182/600/242
f 468/577/463 467/580/466 182/600/242 452/601/452
f 461/578/464 468/577/463 452/601/452 440/593/393
f 34/28/28 21/27/27 470/576/462 469/575/461
f 21/27/27 86/84/84 471/579/465 470/576/462
f 86/84/84 112/112/112 472/581/467 471/579/465
f 112/112/112 99/98/98 473/583/469 472/581/467
f 99/98/98 47/56/56 474/585/471 473/583/469
f 47/56/56 60/55/55 475/587/473 474/585/471
f 60/55/55 73/70/70 476/589/475 475/587/473
f 73/126/70 34/28/28 469/575/461 476/591/475
f 2/1/1 5/114/58 484/602/477 477/603/478
f 5/58/58 4/32/32 483/604/479 484/605/477
f 4/32/32 3/31/31 482/606/480 483/604/479
f 3/31/31 7/86/86 481/607/481 482/606/480
f 7/86/86 8/100/100 480/608/482 481/607/481
f 8/100/100 6/71/71 479/609/483 480/608/482
f 6/71/71 1/2/2 478/610/484 479/609/483
f 1/2/2 2/1/1 477/603/478 478/610/484
f 478/610/484 477/603/478 485/611/485 486/612/486
f 479/609/483 478/610/484 486/612/486 487/613/487
f 480/608/482 479/609/483 487/613/487 488/614/488
f 481/607/481 480/608/482 488/614/488 489/615/489
f 482/606/480 481/607/481 489/615/489 490/616/490
f 483/604/479 482/606/480 490/616/490 491/617/491
f 484/605/477 483/604/479 491/617/491 492/618/492
f 477/603/478 484/602/477 492/619/492 485/611/485
f 486/612/486 485/611/485 418/620/247 325/621/248
f 487/613/487 486/612/486 325/621/248 419/622/394
f 488/614/488 487/613/487 419/622/394 427/623/440
f 489/615/489 488/614/488 427/623/440 420/624/395
f 490/616/490 489/615/489 420/624/395 326/625/300
f 491/617/491 490/616/490 326/625/300 417/626/299
f 492/618/492 491/617/491 417/626/299 426/627/439
f 485/611/485 492/619/492 426/628/439 418/620/247
